<svg  class="fill-white group-hover:fill-[#DD675B]" width="19" height="19" viewBox="0 0 19 19" fill="none" xmlns="http://www.w3.org/2000/svg">
<g clip-path="url(#clip0_1125_8666)">
<path d="M1.82944 0.0259762C1.70698 0.0408192 1.65502 0.111328 1.76635 0.111328C1.79975 0.111328 1.95561 0.178123 2.11889 0.263475C2.61987 0.526953 3.00952 0.99082 3.22104 1.58457C3.2767 1.74785 3.28413 2.36016 3.30268 9.61133C3.32495 18.3914 3.29526 17.601 3.59213 17.768L3.74057 17.8496H5.84096C6.99506 17.8496 7.94135 17.8422 7.94135 17.8311C7.94135 17.8199 7.84116 17.69 7.71498 17.5416C7.22885 16.9664 6.7687 16.1463 6.5312 15.4412L6.40131 15.0664H6.20092C5.72221 15.0664 5.43276 14.6545 5.63686 14.2574C5.71108 14.109 5.94487 13.9531 6.08588 13.9531C6.16752 13.9531 6.17123 13.9457 6.14526 13.6674C6.13413 13.5115 6.12299 13.2629 6.12299 13.1107C6.12299 12.8881 6.11186 12.8398 6.06362 12.8398C6.03022 12.8398 5.93745 12.8027 5.8558 12.7582C5.68881 12.6654 5.56635 12.4613 5.56635 12.2832C5.56635 12.0012 5.84838 11.7266 6.13413 11.7266H6.26401L6.3308 11.4557C6.3642 11.3109 6.44213 11.0512 6.4978 10.8805L6.6017 10.5762H6.30112C5.94116 10.5762 5.74819 10.4871 5.63686 10.2719C5.49955 10.001 5.59233 9.69297 5.8558 9.54453C5.9894 9.47031 6.05248 9.46289 6.58315 9.46289H7.15834L7.3476 9.18457C7.45151 9.03242 7.63705 8.7875 7.75952 8.63906L7.98588 8.36816L6.9728 8.34961C5.82983 8.32734 5.77788 8.31621 5.63686 8.04531C5.49955 7.77441 5.59233 7.46641 5.8558 7.31797C6.00424 7.23633 6.01166 7.23633 7.67045 7.23633H9.34038L9.65209 7.05078C10.3943 6.60918 11.4296 6.26777 12.3574 6.16387C12.5281 6.14531 11.348 6.13047 9.31811 6.12676L6.00424 6.12305L5.8558 6.04141C5.481 5.82988 5.481 5.30293 5.8558 5.09141L6.00424 5.00976H10.0158C13.9642 5.00976 14.031 5.00976 14.1757 5.08398C14.2722 5.13223 14.3501 5.21016 14.3984 5.30664C14.6099 5.72227 14.3316 6.11562 13.8158 6.12676L13.6005 6.13418L13.8789 6.16387C14.6767 6.25293 15.456 6.48301 16.1796 6.83926C16.4357 6.96543 16.6583 7.07305 16.6732 7.08047C16.688 7.08789 16.6955 5.89668 16.6917 4.42715C16.6806 1.78867 16.6806 1.75898 16.599 1.54746C16.3244 0.823828 15.8976 0.389648 15.2148 0.126171L14.9365 0.0185547L8.44233 0.014843C4.87241 0.0111313 1.89252 0.0185547 1.82944 0.0259762ZM9.7226 2.85742C9.8896 2.94277 10.0195 3.1543 10.0195 3.33984C10.0195 3.52539 9.8896 3.73691 9.7226 3.82226C9.58159 3.89277 9.50737 3.89648 7.7892 3.89648C6.00795 3.89648 6.00424 3.89648 5.8558 3.81484C5.481 3.60332 5.47729 3.09492 5.84838 2.87226L5.99311 2.7832H7.78549C9.50737 2.7832 9.58159 2.78691 9.7226 2.85742Z" fill="white"/>
<path d="M0.204102 1.29883C0.0222656 1.65508 0 1.87402 0 3.2582C0 4.70176 0.00371094 4.73145 0.289453 4.89102C0.430469 4.96895 0.475 4.97266 1.31367 4.97266H2.19316L2.18203 3.44004C2.1709 1.91484 2.1709 1.91113 2.08184 1.74414C1.96309 1.51777 1.79609 1.34707 1.57715 1.23203C1.40645 1.13926 1.35078 1.13184 0.846094 1.1207L0.300586 1.10586L0.204102 1.29883Z" fill="white"/>
<path d="M12.6178 7.25881C12.5659 7.26624 12.384 7.29221 12.2096 7.31448C10.9887 7.47776 9.80121 8.10491 8.86605 9.0846C7.28519 10.7285 6.81761 13.1518 7.66371 15.293C8.36878 17.078 10.0276 18.4844 11.8793 18.8666C14.3768 19.3824 16.8446 18.3063 18.1657 16.128C18.5182 15.5528 18.7817 14.844 18.9153 14.1203C19.0006 13.6602 19.0006 12.5766 18.9153 12.1164C18.6815 10.8696 18.136 9.82678 17.2491 8.951C16.3028 8.01585 15.1858 7.46292 13.8869 7.29221C13.5084 7.24026 12.859 7.22542 12.6178 7.25881ZM13.4342 9.50022C13.6383 9.60413 13.7311 9.7971 13.7311 10.1125V10.3537H14.3248C14.8481 10.3537 14.9409 10.3612 15.067 10.428C15.234 10.5133 15.3639 10.7248 15.3639 10.9104C15.3639 11.0959 15.234 11.3074 15.067 11.3928C14.9297 11.4633 14.8518 11.467 13.694 11.467C12.5362 11.467 12.4582 11.4707 12.3209 11.5412C12.1539 11.6266 12.0241 11.8381 12.0241 12.0237C12.0241 12.2018 12.1465 12.4059 12.3135 12.4987C12.4508 12.5766 12.5065 12.5803 13.1485 12.5803C13.527 12.5803 13.9278 12.5989 14.0354 12.6211C14.3582 12.6879 14.6217 12.8364 14.8629 13.0776C15.3936 13.6082 15.5049 14.3653 15.1561 15.0332C14.9223 15.4785 14.4881 15.794 13.976 15.8867L13.7311 15.9313V16.1688C13.7311 16.4768 13.6346 16.6698 13.4342 16.7737C13.245 16.8701 13.0891 16.8664 12.9073 16.7662C12.7032 16.6512 12.6178 16.4694 12.6178 16.1614V15.9201H11.9869C11.2485 15.9201 11.1186 15.883 10.985 15.6233C10.844 15.3449 10.933 15.0407 11.2002 14.8885C11.345 14.8069 11.3709 14.8069 12.577 14.8069C13.7385 14.8069 13.8164 14.8032 13.9537 14.7326C14.1207 14.6473 14.2506 14.4358 14.2506 14.2502C14.2506 14.0647 14.1207 13.8532 13.9537 13.7678C13.8239 13.701 13.7348 13.6936 13.1225 13.6936C12.3803 13.6936 12.1539 13.6602 11.8385 13.5117C11.5676 13.3856 11.2114 13.0256 11.0852 12.7547C10.7772 12.0942 10.9034 11.3594 11.4118 10.8547C11.6789 10.5838 11.9647 10.4428 12.3432 10.3797L12.6178 10.3352V10.094C12.6215 9.7971 12.6994 9.63381 12.8998 9.51507C13.078 9.40745 13.2412 9.40374 13.4342 9.50022Z" fill="white"/>
</g>
<defs>
<clipPath id="clip0_1125_8666">
<rect width="19" height="19" fill="white"/>
</clipPath>
</defs>
</svg>
