<svg  class="fill-white group-hover:fill-[#DD675B]" width="20" height="16" viewBox="0 0 20 16" fill="none" xmlns="http://www.w3.org/2000/svg">
<path d="M8.92697 0.0102549C8.867 0.0188217 8.67424 0.0488071 8.49861 0.0745087C7.43628 0.224434 6.33969 0.657074 5.3459 1.31674C4.69908 1.74939 3.79525 2.65322 3.35832 3.30432C3.00278 3.84405 2.6601 4.51657 2.45877 5.07772C2.3217 5.45896 2.31741 5.46753 2.18034 5.46753C1.94474 5.46753 1.49497 5.6303 1.22082 5.8145C0.693939 6.16575 0.295567 6.76117 0.0942386 7.50222C0.0171343 7.79351 0 7.96057 0 8.59454C0 9.39985 0.0385522 9.65258 0.261298 10.2437C0.52688 10.9548 1.06661 11.623 1.57635 11.8715C1.92332 12.0428 2.39023 12.0685 2.88284 11.94C3.5211 11.7815 3.74384 11.5845 3.74384 11.1775C3.74384 11.079 3.61534 10.1666 3.46113 9.14283C3.15271 7.10385 3.14843 7.0396 3.32405 6.24285C3.50396 5.39042 3.9366 4.43519 4.44635 3.7541C4.80617 3.27434 5.56008 2.55041 6.01414 2.25056C7.13643 1.50522 8.33583 1.14112 9.65517 1.14112C11.3558 1.14112 12.8936 1.76224 14.1272 2.94022C15.091 3.86547 15.7121 4.97063 15.9863 6.24285C16.1534 7.00533 16.1491 7.15526 15.9306 8.59454L15.7336 9.90103L15.498 10.3894C14.5984 12.2656 12.9964 13.5164 10.9188 13.9747C10.6661 14.0304 10.2891 14.0561 9.46241 14.0732C8.73849 14.0904 8.3187 14.1161 8.26301 14.1503C8.13022 14.2274 7.95031 14.4288 7.90319 14.5616C7.83466 14.7329 7.84322 15.3797 7.91604 15.5468C7.98886 15.731 8.25016 15.9537 8.42151 15.9837C8.49861 15.9966 9.10688 16.0051 9.77083 15.9966L10.9745 15.9837L11.1416 15.8509C11.3472 15.6839 11.4543 15.4782 11.4543 15.2341V15.0413L12.024 14.8571C13.1848 14.4802 14.1229 13.9019 15.0139 13.0109C15.3309 12.6896 15.6864 12.2998 15.7978 12.1371C16.0077 11.8415 16.0634 11.8115 16.2647 11.8886C16.3247 11.9143 16.5217 11.9614 16.7017 12C17.3056 12.1242 17.7811 11.9571 18.2823 11.456C18.6207 11.1176 18.8734 10.7149 19.0491 10.2437C19.2718 9.65258 19.3103 9.39985 19.3103 8.59454C19.3061 7.71212 19.2461 7.40799 18.9291 6.76545C18.5607 6.02011 18.051 5.62174 17.3099 5.5018L16.9758 5.44611L16.8516 5.08201C16.5817 4.30668 16.0891 3.43283 15.5665 2.79029C15.211 2.35337 14.5299 1.7194 14.0673 1.38528C13.5832 1.0426 12.6194 0.554269 12.0625 0.370075C11.3001 0.121628 10.7004 0.0231056 9.82652 0.00597095C9.38959 -0.0025959 8.98694 -0.0025959 8.92697 0.0102549Z" fill="white"/>
<path d="M8.79887 2.40396C6.85841 2.72094 5.2435 4.09169 4.64808 5.92506C4.45104 6.53332 4.4082 6.84174 4.4082 7.6085C4.4082 8.03686 4.42962 8.43095 4.46817 8.61514C4.6438 9.51469 5.11928 10.4956 5.64187 11.0696L5.81322 11.2495L5.63759 12.042C5.50051 12.6803 5.47481 12.8644 5.5048 12.9844C5.56048 13.1814 5.74039 13.3185 5.90745 13.2928C5.98027 13.28 6.3658 13.0872 6.76845 12.8644L7.49238 12.4532L7.93358 12.6031C10.448 13.4427 13.181 12.3504 14.3504 10.0416C14.7145 9.31336 14.8773 8.68368 14.9115 7.83981C14.9758 6.34913 14.4832 5.01265 13.4894 3.97175C13.0439 3.50484 12.5727 3.15358 12.0372 2.89657C11.5404 2.65669 11.3219 2.57958 10.8121 2.46393C10.3281 2.35256 9.30004 2.31829 8.79887 2.40396ZM7.41956 6.73465C8.34481 7.19299 8.01497 8.59372 6.97835 8.59372C5.92887 8.59372 5.59904 7.20156 6.53286 6.73465C6.83699 6.58473 7.11971 6.58473 7.41956 6.73465ZM9.95971 6.66611C10.0411 6.68753 10.1953 6.78177 10.2981 6.86744C10.9921 7.46286 10.5723 8.59372 9.65558 8.59372C9.103 8.59372 8.67036 8.16108 8.67036 7.6085C8.67036 6.93598 9.29576 6.48192 9.95971 6.66611ZM12.7697 6.72608C13.5365 7.0859 13.4979 8.20392 12.7098 8.53804C12.3499 8.68368 11.8274 8.55517 11.5789 8.25532C10.8978 7.43287 11.8017 6.27631 12.7697 6.72608Z" fill="white"/>
</svg>
