<svg   class="fill-white group-hover:fill-[#DD675B]" width="18" height="18" viewBox="0 0 18 18" fill="none" xmlns="http://www.w3.org/2000/svg">
<path d="M0.933621 0.0402913C0.549799 0.161316 0.276628 0.399908 0.107193 0.752609L0 0.97737L0 2.94835L0 4.91932L0.114109 5.151C0.252423 5.43454 0.525594 5.69388 0.80568 5.80799L1.00278 5.88752L3.90738 5.8979C5.99246 5.90481 6.87076 5.8979 7.01944 5.87023C7.5727 5.76304 7.9669 5.36884 8.07409 4.81559C8.10175 4.67036 8.10867 4.06869 8.10175 2.81003C8.09138 1.02232 8.09138 1.01195 8.01185 0.814851C7.89774 0.534764 7.6384 0.261594 7.35486 0.12328L7.12318 0.00917053L4.09756 0.00225496C1.71855 -0.00466061 1.04081 0.00571299 0.933621 0.0402913Z" fill="white"/>
<path d="M10.5248 0.04002C10.1582 0.13684 9.80208 0.458421 9.65685 0.81458L9.57732 1.01168L9.56695 5.02279C9.56003 7.92047 9.56695 9.09268 9.59461 9.24137C9.7018 9.79463 10.096 10.1888 10.6493 10.296C10.7979 10.3237 11.6762 10.3306 13.7613 10.3237L16.6659 10.3133L16.863 10.2338C17.1431 10.1197 17.4163 9.86033 17.5546 9.57678L17.6687 9.3451V5.1611V0.977098L17.5615 0.752338C17.4232 0.461879 17.2157 0.254407 16.9322 0.119551L16.7005 0.00889969L13.6922 0.00198364C11.3858 -0.00147438 10.6458 0.00544167 10.5248 0.04002Z" fill="white"/>
<path d="M1.02007 7.39505C0.632787 7.47113 0.269713 7.76504 0.0933621 8.14541L0 8.34251L0 12.5265L0 16.7105L0.107193 16.9353C0.24205 17.2223 0.456437 17.4367 0.743439 17.5715L0.968199 17.6787H4.04569H7.12318L7.35486 17.5646C7.6384 17.4263 7.89774 17.1531 8.01185 16.873L8.09138 16.6759L8.10175 12.6648C8.10867 9.76714 8.10175 8.59493 8.07409 8.44624C7.97035 7.90336 7.58307 7.50916 7.04365 7.39505C6.82235 7.3501 1.26212 7.34664 1.02007 7.39505Z" fill="white"/>
<path d="M10.5801 11.8315C10.0614 11.9594 9.69835 12.3432 9.59461 12.8723C9.56695 13.0175 9.56003 13.6157 9.56695 14.8778C9.57732 16.6656 9.57732 16.6759 9.65685 16.873C9.77096 17.1531 10.0303 17.4263 10.3138 17.5646L10.5455 17.6787H13.623H16.7005L16.9322 17.5681C17.2157 17.4332 17.4232 17.2257 17.5615 16.9353L17.6687 16.7105V14.7395V12.7686L17.5546 12.5369C17.4163 12.2533 17.1431 11.994 16.863 11.8799L16.6659 11.8004L13.7095 11.7934C11.4653 11.79 10.7115 11.7969 10.5801 11.8315Z" fill="white"/>
</svg>
