  <svg
    class="w-6 h-6 fill-current text-white group-hover:text-[#DD675B] transition-colors duration-200"
    xmlns="http://www.w3.org/2000/svg"
    width="21"
    height="20"
    viewBox="0 0 21 20"
  >
    <g clip-path="url(#clip0_1125_8635)">
      <path
        d="M10.2003 2.07075C10.0896 2.09028 9.90498 2.14887 9.79014 2.20356C9.66299 2.26606 7.65732 3.82856 4.81904 6.08637C-0.193066 10.0668 -0.0536125 9.94575 0.0120125 10.2036C0.0284187 10.2543 0.249903 10.5356 0.512403 10.8286C0.906153 11.2739 1.00869 11.3676 1.12354 11.3911C1.20147 11.4028 1.304 11.4028 1.34912 11.3872C1.39424 11.3754 3.46963 9.74653 5.95518 7.77387C8.44482 5.79731 10.4874 4.18012 10.4997 4.18012C10.512 4.18012 12.5546 5.79731 15.0442 7.77387C17.5298 9.74653 19.6052 11.3754 19.6503 11.3872C19.6954 11.4028 19.7979 11.4028 19.8759 11.3911C19.9907 11.3676 20.0933 11.2739 20.487 10.8286C20.7495 10.5356 20.971 10.2543 20.9874 10.2036C21.0489 9.96137 20.9997 9.9145 19.4821 8.71137L18.0261 7.55512L18.0056 4.93012L17.9851 2.30512L17.8702 2.19965L17.7595 2.09028L16.4347 2.07856C15.5733 2.07075 15.0606 2.07856 14.9663 2.1059C14.6874 2.18403 14.6874 2.19184 14.6751 3.61372L14.6628 4.89106L12.9894 3.56294C11.197 2.13715 11.1437 2.102 10.6433 2.05903C10.5079 2.04731 10.3069 2.05122 10.2003 2.07075Z"
      />
      <path
        d="M6.73477 8.21094L2.99414 11.1484V14.1953C2.99414 16.293 3.01055 17.2969 3.03926 17.4023C3.10078 17.6172 3.37969 17.8672 3.62168 17.9219C3.75293 17.957 4.55684 17.9688 6.3123 17.9688H8.81836V15.5859V13.2031H10.5H12.1816V15.5859V17.9688H14.6877C16.357 17.9688 17.2512 17.9531 17.366 17.9258C17.5957 17.8711 17.8336 17.6836 17.9279 17.4844C18.0018 17.332 18.0059 17.1562 18.0059 14.2344V11.1484L14.2775 8.22266C12.2309 6.61328 10.5369 5.29297 10.5164 5.28516C10.4959 5.27734 8.79375 6.59375 6.73477 8.21094Z"
      />
    </g>
    <defs>
      <clipPath id="clip0_1125_8635">
        <rect width="21" height="20" fill="white" />
      </clipPath>
    </defs>
  </svg>