<svg   class="fill-white group-hover:fill-[#DD675B]"width="26" height="26" viewBox="0 0 26 26" fill="none" xmlns="http://www.w3.org/2000/svg">
<path d="M3.7337 2.50351C3.25128 2.72695 3.10401 3.36679 3.43917 3.76289C3.62198 3.98125 3.84542 4.0625 4.23136 4.0625C4.40909 4.0625 4.65792 4.09804 4.78487 4.14375C5.20636 4.28593 5.5669 4.68203 5.65831 5.10351C5.67862 5.18476 6.06456 7.86601 6.52159 11.0551C7.32394 16.6207 7.35948 16.8644 7.5169 17.1844C7.81144 17.8039 8.43604 18.2711 9.11651 18.3828C9.29933 18.4133 11.3458 18.4336 14.2962 18.4336C19.6689 18.4336 19.5165 18.4387 20.131 18.1187C20.5423 17.9004 21.0704 17.3723 21.2685 16.9812C21.4411 16.641 21.5579 16.25 21.6087 15.8691C21.6239 15.7269 21.8931 14.0715 22.2028 12.1875C22.731 8.96289 22.7614 8.73945 22.7107 8.39921C22.6853 8.20117 22.604 7.90664 22.5329 7.74921C22.2739 7.18046 21.6493 6.68281 21.0349 6.55585C20.847 6.51523 18.7954 6.5 14.1439 6.5C10.4978 6.5 7.5169 6.48984 7.5169 6.47968C7.5169 6.30703 7.23761 4.7125 7.16144 4.46875C6.91261 3.63593 6.16612 2.88945 5.28253 2.58984C4.86104 2.44765 3.96729 2.39687 3.7337 2.50351ZM16.6017 10.3086C16.9978 10.5066 17.1552 11.0602 16.9216 11.4359C16.8607 11.5273 16.1345 12.2789 15.3017 13.1066C13.6767 14.7266 13.6157 14.7672 13.1892 14.7012C12.9962 14.6707 12.8896 14.5793 12.1228 13.8176C11.6505 13.3555 11.2341 12.9086 11.1884 12.8273C10.9192 12.3195 11.3103 11.6797 11.8942 11.6797C12.2294 11.6797 12.3411 11.7508 12.8743 12.284L13.3314 12.7461L14.5247 11.5578C15.1798 10.9027 15.7892 10.334 15.8704 10.2883C16.0786 10.1816 16.3681 10.1867 16.6017 10.3086Z" fill="white"/>
<path d="M9.35496 21.4704C8.99441 21.6025 8.7405 21.8157 8.56785 22.1458C8.43582 22.3896 8.42566 22.4607 8.44089 22.806C8.45105 23.1259 8.48152 23.2325 8.60847 23.4407C9.16707 24.3447 10.4671 24.2989 10.9596 23.3646C11.1831 22.9329 11.1831 22.5876 10.9698 22.156C10.66 21.5364 9.97957 21.2521 9.35496 21.4704Z" fill="white"/>
<path d="M18.1547 21.4245C17.916 21.4854 17.6113 21.6581 17.459 21.8206C16.9816 22.3183 17.0019 23.2577 17.4996 23.7249C17.8855 24.0854 18.5507 24.1972 19.0078 23.9737C19.4445 23.7604 19.805 23.212 19.805 22.7499C19.805 22.2979 19.4445 21.7394 19.0281 21.5362C18.7843 21.4194 18.3781 21.3686 18.1547 21.4245Z" fill="white"/>
</svg>
