<svg  class="fill-white group-hover:fill-[#DD675B]" width="19" height="18" viewBox="0 0 19 18" fill="none" xmlns="http://www.w3.org/2000/svg">
<path d="M7.77349 0.190207C6.44868 0.928684 0.611377 4.33161 0.507471 4.4281C0.433252 4.50232 0.351611 4.62107 0.333057 4.69528C0.284814 4.87341 0.284814 13.1265 0.333057 13.3047C0.351611 13.3789 0.433252 13.4976 0.507471 13.5718C0.618799 13.672 7.21314 17.5166 7.78833 17.8134C7.8811 17.858 7.97388 17.8728 8.12603 17.8617C8.32271 17.8468 8.43032 17.7912 9.59556 17.1195C10.6792 16.4961 12.7684 15.2863 14.4532 14.314C15.7817 13.5496 15.7409 13.5793 15.611 13.4642C15.251 13.1377 14.6387 12.8779 13.9819 12.7666L13.8409 12.7443V12.941C13.8409 13.3306 13.6924 13.5978 13.3918 13.7537C13.236 13.8316 12.9428 13.8465 12.7833 13.7871C12.6163 13.724 9.80337 11.6384 9.66607 11.4752C9.43599 11.208 9.39146 10.7886 9.55845 10.4584C9.64009 10.2877 9.82935 10.117 11.143 9.01482C11.9631 8.32829 12.6868 7.74197 12.7536 7.71599C12.9131 7.64548 13.2249 7.64919 13.3807 7.72341C13.5514 7.80505 13.7518 8.03884 13.8001 8.20954C13.8223 8.28747 13.8409 8.42849 13.8409 8.52497V8.69939L14.0004 8.71794C14.0858 8.72907 14.3159 8.75505 14.5088 8.78103C14.7018 8.80329 15.0877 8.87751 15.3624 8.94802C15.637 9.01853 15.867 9.07419 15.8745 9.07419C15.8782 9.07419 15.8782 8.0945 15.8745 6.89216C15.8633 4.52087 15.8708 4.61364 15.6518 4.40954C15.5813 4.34275 13.5588 3.15154 13.2026 2.96599C13.1024 2.91403 13.0282 2.95114 9.2022 5.16286L5.30571 7.41169V9.0779V10.7441L5.21294 10.7886C5.1313 10.8258 5.0645 10.7961 4.5561 10.5029C3.11997 9.67907 3.12368 9.67907 3.07915 9.52693C3.05689 9.44157 3.04204 8.76989 3.04204 7.7531V6.11286L6.91255 3.87888C9.03892 2.65056 10.7905 1.63376 10.8053 1.61892C10.8202 1.60778 10.2709 1.27009 9.58442 0.87302C8.37837 0.179073 8.32642 0.153097 8.10747 0.141964C7.95161 0.134542 7.85142 0.149385 7.77349 0.190207Z" fill="white"/>
<path d="M11.5965 9.40828C10.8432 10.0428 10.1864 10.6032 10.1418 10.6552C10.0565 10.7479 10.0305 10.9298 10.0787 11.0559C10.0936 11.0893 10.7504 11.594 11.5409 12.1729C13.0141 13.2565 13.1254 13.3196 13.2108 13.16C13.2293 13.1192 13.2479 12.8706 13.2479 12.6034V12.1173H13.4075C13.6338 12.1173 14.3055 12.2137 14.5616 12.2843C15.6526 12.5737 16.4987 13.2899 16.777 14.1583C16.8994 14.5331 16.9143 15.1046 16.8141 15.4682C16.6137 16.1956 16.1239 16.8153 15.3594 17.2977C15.1776 17.4128 15.0291 17.5204 15.0291 17.5389C15.0291 17.6057 15.8715 17.32 16.302 17.1048C16.8846 16.8116 17.5414 16.2624 17.9274 15.754C18.1909 15.4052 18.4655 14.8337 18.5768 14.3995C18.9887 12.7778 18.3319 11.1858 16.8475 10.2136C16.0385 9.6866 14.9252 9.36004 13.7414 9.30808L13.2479 9.28582V8.84422C13.2479 8.59929 13.2293 8.36922 13.2108 8.32839C13.1143 8.15398 13.0215 8.21707 11.5965 9.40828Z" fill="white"/>
</svg>
