<svg  class="fill-white group-hover:fill-[#DD675B]" width="18" height="18"  viewBox="0 0 18 18" fill="none" xmlns="http://www.w3.org/2000/svg">
<path d="M7.75195 0.0492172C7.62539 0.101952 7.46016 0.28828 7.43555 0.397264C7.425 0.439453 7.37578 0.657421 7.31953 0.878906L7.22109 1.2832L7.01016 1.34648C6.20156 1.58906 5.66367 1.80703 5.12227 2.11641L4.81289 2.29219L4.45078 2.07773C3.9375 1.77187 3.83203 1.73672 3.6457 1.79297C3.52266 1.82812 3.36094 1.97227 2.69648 2.62969C1.84219 3.48047 1.73672 3.62109 1.77891 3.84609C1.78945 3.91641 1.88789 4.1168 1.99336 4.29609C2.32734 4.85859 2.31328 4.77422 2.11641 5.12578C1.80703 5.67773 1.54688 6.30703 1.38867 6.87305C1.34297 7.0418 1.29023 7.19297 1.27617 7.20703C1.26211 7.22109 1.04414 7.28086 0.794531 7.34062C0.333984 7.44961 0.221484 7.50234 0.0914062 7.67812C0.0210937 7.77305 0.0175781 7.81875 0.0175781 9C0.0175781 10.1883 0.0210937 10.227 0.0914062 10.3254C0.217969 10.4941 0.358594 10.5609 0.822656 10.6664C1.1918 10.7508 1.27617 10.7824 1.30078 10.8422C1.31484 10.8844 1.39922 11.1375 1.48711 11.4082C1.65234 11.9215 1.84219 12.375 1.88789 12.375C1.90195 12.375 2.46094 11.816 3.12891 11.134L4.34531 9.89648L4.29609 9.45703C4.11328 7.72383 4.92539 6.01523 6.38437 5.05547C7.73789 4.16601 9.37617 4.01836 10.8879 4.64414C11.7633 5.00976 12.593 5.74805 13.0957 6.60938C13.7566 7.74141 13.9113 9.17578 13.5141 10.4449C13.152 11.6086 12.259 12.6598 11.1727 13.2082C10.3781 13.609 9.36211 13.7988 8.4832 13.7074L8.07891 13.6652L6.84492 14.8992L5.61094 16.1332L5.85352 16.2457C6.05391 16.3371 6.67617 16.5516 7.13672 16.6922C7.21406 16.7168 7.23516 16.766 7.33711 17.1914C7.45664 17.6766 7.50586 17.782 7.67812 17.9086C7.77305 17.9789 7.81875 17.9824 9 17.9824C10.1812 17.9824 10.227 17.9789 10.3219 17.9086C10.4977 17.7785 10.5539 17.6625 10.6664 17.1879L10.7754 16.7168L10.9863 16.6535C11.7879 16.4145 12.3363 16.193 12.8777 15.8836L13.1836 15.7078L13.616 15.9574C13.8516 16.091 14.0906 16.2141 14.1434 16.2281C14.3613 16.2809 14.4984 16.1789 15.3527 15.3211C16.4109 14.2559 16.3863 14.3332 15.9223 13.5492L15.7078 13.1871L15.8836 12.8777C16.193 12.3363 16.4145 11.7879 16.6535 10.9863L16.7168 10.7754L17.1879 10.6629C17.6695 10.5504 17.7785 10.4977 17.9086 10.3219C17.9789 10.227 17.9824 10.1812 17.9824 9C17.9824 7.81875 17.9789 7.77305 17.9086 7.67812C17.7785 7.50234 17.6695 7.44961 17.1879 7.33711L16.7168 7.22461L16.6535 7.01367C16.4145 6.21211 16.193 5.66367 15.8836 5.12226L15.7078 4.81289L15.9223 4.45078C16.3863 3.6668 16.4109 3.74414 15.3527 2.67891C14.4984 1.82109 14.3613 1.71914 14.1434 1.77187C14.0906 1.78594 13.8516 1.90898 13.616 2.04258L13.1836 2.29219L12.8777 2.11641C12.3363 1.80703 11.7879 1.58555 10.9863 1.34648L10.7754 1.2832L10.6664 0.812109C10.5539 0.3375 10.4977 0.221483 10.3219 0.0914059C10.2305 0.0210934 10.1742 0.0175781 9.04219 0.0105457C8.11055 0.00351524 7.83281 0.0105457 7.75195 0.0492172Z" fill="white"/>
<path d="M8.5603 5.33345C6.30678 5.62173 4.83374 7.83658 5.456 9.99868L5.52632 10.2413L2.89311 12.8815C0.432175 15.346 0.252878 15.5358 0.161472 15.7432C-0.116263 16.3795 0.00326861 17.0581 0.470847 17.5292C0.94194 17.9967 1.62046 18.1163 2.25678 17.8385C2.46421 17.7471 2.65405 17.5678 5.1185 15.1069L7.76225 12.4737L7.931 12.5264C8.32475 12.6495 8.50053 12.6741 9.01733 12.6741C9.47788 12.6706 9.59389 12.66 9.93139 12.5721C10.7646 12.3612 11.4115 11.9463 11.8931 11.31C12.4451 10.5893 12.7263 9.69634 12.6771 8.81744C12.6384 8.07212 12.5048 7.74868 12.199 7.67134C11.9212 7.60103 11.858 7.64322 11.074 8.42017C10.6767 8.8104 10.3076 9.15493 10.2478 9.18306C9.956 9.33423 9.55874 9.33423 9.27046 9.19009C8.74311 8.9229 8.54272 8.21978 8.84858 7.72056C8.8978 7.6397 9.24233 7.26704 9.61499 6.89087C10.3533 6.14204 10.399 6.07876 10.3287 5.80103C10.2794 5.60415 10.1107 5.46704 9.86108 5.41431C9.3935 5.31587 8.91538 5.28775 8.5603 5.33345Z" fill="white"/>
</svg>
