<svg   class="fill-white group-hover:fill-[#DD675B]" width="17" height="17 " viewBox="0 0 17 17" fill="none" xmlns="http://www.w3.org/2000/svg">
  <g clipPath="url(#clip0_1125_8658)">
    <path
      d="M3.08915 0.0332584C2.5579 0.102983 2.36532 0.192633 2.27235 0.421734C2.20927 0.567827 2.21591 0.677399 2.28896 0.823492C2.32548 0.889898 2.66415 1.25181 3.03935 1.62701C3.74989 2.33091 3.88271 2.48697 3.94911 2.69947C4.01884 2.90533 3.99892 3.20084 3.90927 3.40338C3.68681 3.88482 3.1456 4.10396 2.63427 3.91138C2.46161 3.8483 2.362 3.76529 1.66142 3.07134C1.2331 2.64634 0.847941 2.28111 0.808097 2.26119C0.708488 2.21138 0.51591 2.2147 0.406339 2.27115C0.183878 2.38736 0.0942298 2.6065 0.0344642 3.18755C-0.0684655 4.18033 0.30341 5.20963 1.03388 5.94009C1.34267 6.24888 1.60497 6.43482 1.99677 6.62076C2.51806 6.8731 2.77372 6.92291 3.45439 6.91959C3.91259 6.91627 4.10185 6.90299 4.35087 6.84654L4.6663 6.77681L7.44872 9.55591L10.2311 12.3383L10.1581 12.6504C10.0983 12.9128 10.0851 13.0655 10.0851 13.5635C10.0817 14.2608 10.1282 14.4833 10.3739 14.9979C10.5765 15.4163 10.7425 15.652 11.0612 15.9708C11.5659 16.4754 12.1436 16.7842 12.8675 16.937C13.3224 17.0333 14.2919 16.9602 14.5442 16.8108C14.7335 16.7012 14.8231 16.429 14.7401 16.2131C14.7235 16.1633 14.3649 15.7749 13.9499 15.3565C13.4684 14.8717 13.163 14.5397 13.1165 14.4434C13.0667 14.3438 13.0335 14.2143 13.0235 14.0616C12.9804 13.3311 13.671 12.8297 14.3683 13.0854C14.5409 13.1518 14.6372 13.2315 15.3411 13.9321C15.7694 14.3571 16.1645 14.7223 16.2143 14.7389C16.3571 14.7954 16.4966 14.7821 16.636 14.7057C16.7921 14.6161 16.8552 14.5065 16.9149 14.2243C17.2503 12.6305 16.4434 11.0368 14.9593 10.3495C14.4712 10.1237 14.2421 10.0805 13.5647 10.0805C13.0733 10.0838 12.9106 10.0971 12.6517 10.1536L12.3362 10.2266L9.55712 7.44752C7.63134 5.52174 6.78134 4.64849 6.79462 4.61529C6.88759 4.37955 6.95068 3.92799 6.954 3.50299C6.954 2.88209 6.86767 2.48697 6.60868 1.95572C6.28661 1.29166 5.70556 0.70064 5.0581 0.371929C4.49032 0.0797424 3.72333 -0.0497494 3.08915 0.0332584Z"
      fill="white"
    />
    <path
      d="M15.4471 0.0498047C15.2777 0.126172 12.7775 1.62695 12.6912 1.70664C12.492 1.88594 12.4588 2.16816 12.6148 2.37734C12.6646 2.44707 12.741 2.53672 12.7809 2.56992L12.8539 2.63633L11.1838 4.30645L9.51367 5.97656L10.2209 6.68047L10.9248 7.3877L12.5949 5.71758L14.265 4.04746L14.3779 4.17031C14.5971 4.39941 14.7398 4.48242 14.9092 4.48242C15.1947 4.48242 15.218 4.45254 16.0613 3.05469C17.0143 1.47754 17.0143 1.47422 16.9844 1.275C16.9645 1.13223 16.9279 1.08574 16.5262 0.674023C16.2838 0.42832 16.0348 0.182617 15.965 0.129492C15.8189 0.00996065 15.6031 -0.0232425 15.4471 0.0498047Z"
      fill="white"
    />
    <path
      d="M2.83604 11.3624C0.435452 13.7663 0.335843 13.8725 0.219632 14.1116C-0.168845 14.9118 -0.0260712 15.785 0.594827 16.4059C1.1294 16.9405 1.87647 17.1264 2.59034 16.904C3.0419 16.7612 3.06182 16.7446 5.67159 14.1348L8.13526 11.6712L6.73076 10.2667L5.32959 8.86549L2.83604 11.3624ZM5.76787 11.0403C5.93721 11.1133 6.0003 11.1731 6.06006 11.3391C6.10655 11.4553 6.10987 11.5018 6.07666 11.6247C6.04346 11.7542 5.87412 11.9335 4.47295 13.3379C3.61299 14.2012 2.85928 14.9317 2.80284 14.9583C2.37784 15.1608 1.93955 14.7225 2.14209 14.2975C2.21514 14.1448 5.26983 11.1034 5.4126 11.0436C5.56201 10.9805 5.61846 10.9772 5.76787 11.0403Z"
      fill="white"
    />
  </g>
  <defs>
    <clipPath id="clip0_1125_8658">
      <rect width="17" height="17" fill="white" />
    </clipPath>
  </defs>
</svg>
